<svg xmlns="http://www.w3.org/2000/svg" xmlns:xlink="http://www.w3.org/1999/xlink" width="31" height="23" version="1.1" viewBox="0 0 31 23"><title>icons/briefcase</title><desc>Created with Sketch.</desc><g id="Hygieia-Executive" fill="none" fill-rule="evenodd" stroke="none" stroke-width="1"><g id="Portfolio---Metrics-and-Products" fill="#FFF" transform="translate(-40.000000, -100.000000)"><g id="icons/briefcase" transform="translate(40.000000, 100.000000)"><path id="Rectangle-4" fill-rule="nonzero" d="M2.2962963,5.175 C1.66219158,5.175 1.14814815,5.68987254 1.14814815,6.325 L1.14814815,20.7 C1.14814815,21.3351275 1.66219158,21.85 2.2962963,21.85 L28.7037037,21.85 C29.3378084,21.85 29.8518519,21.3351275 29.8518519,20.7 L29.8518519,6.325 C29.8518519,5.68987254 29.3378084,5.175 28.7037037,5.175 L2.2962963,5.175 Z M2.2962963,4.025 L28.7037037,4.025 C29.9719131,4.025 31,5.05474508 31,6.325 L31,20.7 C31,21.9702549 29.9719131,23 28.7037037,23 L2.2962963,23 C1.02808687,23 0,21.9702549 0,20.7 L0,6.325 C0,5.05474508 1.02808687,4.025 2.2962963,4.025 Z"/><path id="Rectangle-3" fill-rule="nonzero" d="M10.3333333,1.15 L10.3333333,4.025 L20.6666667,4.025 L20.6666667,1.15 L10.3333333,1.15 Z M10.3333333,0 L20.6666667,0 C21.3007714,0 21.8148148,0.514872538 21.8148148,1.15 L21.8148148,4.025 C21.8148148,4.66012746 21.3007714,5.175 20.6666667,5.175 L10.3333333,5.175 C9.69922862,5.175 9.18518519,4.66012746 9.18518519,4.025 L9.18518519,1.15 C9.18518519,0.514872538 9.69922862,0 10.3333333,0 Z"/><path id="Path-2" fill-rule="nonzero" d="M0.25704173,10.3211444 C10.7273999,14.924621 20.8118857,14.8383991 30.463085,10.0559019 L29.9539558,9.02514948 C20.6126663,13.6540758 10.8833287,13.7372612 0.718528711,9.26812861 L0.25704173,10.3211444 Z"/><rect id="Rectangle-5" width="1.148" height="4.6" x="14.926" y="10.925" fill-rule="evenodd"/></g></g></g></svg>