<svg xmlns="http://www.w3.org/2000/svg" xmlns:xlink="http://www.w3.org/1999/xlink" width="24" height="24" version="1.1" viewBox="0 0 24 24"><title>close-icon</title><desc>Created with Sketch.</desc><g id="Symbols" fill="none" fill-rule="evenodd" stroke="none" stroke-width="1"><g id="productComponents/data/about-metric-card" fill="#FFF" transform="translate(-218.000000, -18.000000)"><g id="close-icon" transform="translate(218.000000, 18.000000)"><path id="Oval-2" fill-rule="nonzero" d="M12,23 C18.0751322,23 23,18.0751322 23,12 C23,5.92486775 18.0751322,1 12,1 C5.92486775,1 1,5.92486775 1,12 C1,18.0751322 5.92486775,23 12,23 Z M12,24 C5.372583,24 0,18.627417 0,12 C0,5.372583 5.372583,0 12,0 C18.627417,0 24,5.372583 24,12 C24,18.627417 18.627417,24 12,24 Z"/><path id="Combined-Shape" fill-rule="evenodd" d="M12.2238161,11.3257362 L8.18245678,7.28437694 C7.93445888,7.03637904 7.53237484,7.03637904 7.28437694,7.28437694 C7.03637904,7.53237484 7.03637904,7.93445888 7.28437694,8.18245678 L11.3257362,12.2238161 L7.28437694,16.2651754 C7.03637904,16.5131733 7.03637904,16.9152573 7.28437694,17.1632552 C7.53237484,17.4112531 7.93445888,17.4112531 8.18245678,17.1632552 L12.2238161,13.1218959 L16.2651754,17.1632552 C16.5131733,17.4112531 16.9152573,17.4112531 17.1632552,17.1632552 C17.4112531,16.9152573 17.4112531,16.5131733 17.1632552,16.2651754 L13.1218959,12.2238161 L17.1632552,8.18245678 C17.4112531,7.93445888 17.4112531,7.53237484 17.1632552,7.28437694 C16.9152573,7.03637904 16.5131733,7.03637904 16.2651754,7.28437694 L12.2238161,11.3257362 Z"/></g></g></g></svg>