<svg xmlns="http://www.w3.org/2000/svg" xmlns:xlink="http://www.w3.org/1999/xlink" width="20" height="19" version="1.1" viewBox="0 0 20 19"><title>icons/red-trend</title><desc>Created with Sketch.</desc><g id="Page-1" fill="none" fill-rule="evenodd" stroke="none" stroke-width="1"><g id="Dashboard---products-showing" fill="#7ED321" transform="translate(-800.000000, -433.000000)"><g id="data/production-incidents-front-copy-12" transform="translate(590.000000, 411.000000)"><g id="icons/green-lower-trend" transform="translate(220.000000, 32.000000) rotate(-180.000000) translate(-220.000000, -32.000000) translate(210.000000, 22.000000)"><rect id="Rectangle-2" width="4" height="14.118" x="8" y="1" rx="2"/><path id="Combined-Shape" d="M6.4532722,13.5120957 L6.4532722,4.68856632 C6.4532722,3.71394618 5.66318647,2.92386044 4.68856632,2.92386044 L4.68856632,2.92386044 L4.68856632,2.92386044 C3.71394618,2.92386044 2.92386044,3.71394618 2.92386044,4.68856632 L2.92386044,4.68856632 L2.92386044,15.2768016 C2.92386044,15.7641117 3.12138187,16.2052882 3.44073083,16.5246371 C3.76007978,16.8439861 4.20125625,17.0415075 4.68856632,17.0415075 L15.2768016,17.0415075 C16.2514218,17.0415075 17.0415075,16.2514218 17.0415075,15.2768016 C17.0415075,14.3021815 16.2514218,13.5120957 15.2768016,13.5120957 L6.4532722,13.5120957 Z" transform="translate(9.982684, 9.982684) rotate(-45.000000) translate(-9.982684, -9.982684)"/></g></g></g></g></svg>